<svg xmlns="http://www.w3.org/2000/svg" width="16.332" height="17.591" viewBox="0 0 16.332 17.591">
  <path id="share" d="M15.415,13.53a3.138,3.138,0,0,0-2.441,1.186L8.387,11.848a2.8,2.8,0,0,0,0-1.657l4.587-2.868a3.138,3.138,0,1,0-.7-1.952A3.006,3.006,0,0,0,12.4,6.2L7.816,9.068a3.138,3.138,0,1,0,0,3.9L12.4,15.838a3.006,3.006,0,0,0-.126.829,3.138,3.138,0,1,0,3.138-3.138Zm0-10.04a1.883,1.883,0,1,1-1.883,1.883,1.883,1.883,0,0,1,1.883-1.883ZM5.375,12.9a1.883,1.883,0,1,1,1.883-1.883A1.883,1.883,0,0,1,5.375,12.9Zm10.04,5.648A1.883,1.883,0,1,1,17.3,16.667a1.883,1.883,0,0,1-1.883,1.883Z" transform="translate(-2.221 -2.214)" fill="#fff"/>
</svg>
